# Blender 4.4.1
# www.blender.org
mtllib cutted pipe main.mtl
o Concrete_pipe_main
v 0.204491 0.000000 1.397609
v 0.197524 0.052926 1.397609
v 0.177095 0.102246 1.397609
v 0.144597 0.144597 1.397609
v 0.102246 0.177095 1.397609
v 0.052926 0.197523 1.397609
v 0.000000 0.204491 1.397609
v -0.052926 0.197523 1.397609
v -0.102246 0.177095 1.397609
v -0.144597 0.144597 1.397609
v -0.177095 0.102246 1.397609
v -0.197523 0.052926 1.397609
v -0.204491 0.000000 1.397609
v -0.197524 -0.052926 1.397609
v -0.177095 -0.102245 1.397609
v -0.144597 -0.144597 1.397609
v -0.102246 -0.177095 1.397609
v -0.052926 -0.197524 1.397609
v 0.000000 -0.204491 1.397609
v 0.052926 -0.197524 1.397609
v 0.102246 -0.177095 1.397609
v 0.144597 -0.144598 1.397609
v 0.177095 -0.102246 1.397609
v 0.197524 -0.052927 1.397609
v 0.228615 0.000000 1.478015
v 0.220825 0.059170 1.478015
v 0.197987 0.114308 1.478016
v 0.161655 0.161655 1.478015
v 0.114308 0.197987 1.478016
v 0.059170 0.220825 1.478016
v 0.000000 0.228615 1.478016
v -0.059170 0.220825 1.478016
v -0.114308 0.197987 1.478015
v -0.161655 0.161655 1.478016
v -0.197986 0.114308 1.478015
v -0.220825 0.059170 1.478015
v -0.228615 0.000000 1.478016
v -0.220826 -0.059170 1.478015
v -0.197987 -0.114308 1.478015
v -0.161655 -0.161655 1.478016
v -0.114308 -0.197987 1.478015
v -0.059170 -0.220825 1.478015
v 0.000000 -0.228615 1.478015
v 0.059170 -0.220825 1.478015
v 0.114308 -0.197987 1.478016
v 0.161655 -0.161656 1.478015
v 0.197986 -0.114308 1.478015
v 0.220825 -0.059170 1.478015
v 0.228155 0.000000 1.740697
v 0.220381 0.059051 1.740697
v 0.197588 0.114077 1.740697
v 0.161330 0.161330 1.740697
v 0.114077 0.197588 1.740697
v 0.059051 0.220381 1.740697
v 0.000000 0.228155 1.740697
v -0.059050 0.220381 1.740697
v -0.114077 0.197588 1.740697
v -0.161330 0.161330 1.740697
v -0.197588 0.114077 1.740697
v -0.220381 0.059051 1.740697
v -0.228155 0.000000 1.740697
v -0.220380 -0.059051 1.740697
v -0.197588 -0.114077 1.740697
v -0.161330 -0.161330 1.740697
v -0.114077 -0.197588 1.740697
v -0.059051 -0.220381 1.740697
v 0.000000 -0.228155 1.740697
v 0.059051 -0.220381 1.740697
v 0.114077 -0.197588 1.740697
v 0.161330 -0.161330 1.740697
v 0.197588 -0.114078 1.740697
v 0.220381 -0.059051 1.740697
v 0.234152 0.000000 1.393110
v 0.226174 0.060603 1.393110
v 0.202782 0.117076 1.393110
v 0.165571 0.165570 1.393110
v 0.117076 0.202782 1.393110
v 0.060603 0.226174 1.393110
v 0.000000 0.234152 1.393110
v -0.060603 0.226174 1.393110
v -0.117076 0.202782 1.393110
v -0.165570 0.165571 1.393110
v -0.202782 0.117076 1.393110
v -0.226173 0.060603 1.393110
v -0.234152 0.000000 1.393110
v -0.226174 -0.060603 1.393110
v -0.202782 -0.117076 1.393110
v -0.165571 -0.165571 1.393110
v -0.117076 -0.202782 1.393110
v -0.060603 -0.226174 1.393110
v 0.000000 -0.234152 1.393110
v 0.060603 -0.226174 1.393110
v 0.117076 -0.202782 1.393110
v 0.165570 -0.165571 1.393110
v 0.202782 -0.117076 1.393110
v 0.226174 -0.060603 1.393110
v 0.249516 0.066858 1.473804
v 0.258318 0.000000 1.473804
v 0.223710 0.129159 1.473804
v 0.182659 0.182658 1.473804
v 0.129159 0.223710 1.473804
v 0.066858 0.249516 1.473804
v 0.000000 0.258318 1.473804
v -0.066858 0.249516 1.473805
v -0.129159 0.223710 1.473804
v -0.182658 0.182659 1.473805
v -0.223710 0.129159 1.473804
v -0.249516 0.066857 1.473804
v -0.258318 0.000000 1.473805
v -0.249516 -0.066857 1.473804
v -0.223710 -0.129159 1.473804
v -0.182659 -0.182659 1.473804
v -0.129159 -0.223710 1.473804
v -0.066858 -0.249516 1.473804
v 0.000000 -0.258318 1.473804
v 0.066858 -0.249516 1.473804
v 0.129159 -0.223710 1.473804
v 0.182658 -0.182659 1.473804
v 0.223710 -0.129160 1.473804
v 0.249516 -0.066858 1.473804
v 0.258154 0.000000 1.740887
v 0.249358 0.066815 1.740887
v 0.223568 0.129077 1.740887
v 0.182543 0.182542 1.740887
v 0.129077 0.223568 1.740887
v 0.066815 0.249358 1.740887
v 0.000000 0.258154 1.740887
v -0.066815 0.249358 1.740887
v -0.129077 0.223568 1.740887
v -0.182542 0.182543 1.740887
v -0.223568 0.129077 1.740887
v -0.249358 0.066815 1.740887
v -0.258154 0.000000 1.740887
v -0.249358 -0.066816 1.740887
v -0.223568 -0.129077 1.740887
v -0.182543 -0.182542 1.740887
v -0.129077 -0.223568 1.740887
v -0.066816 -0.249358 1.740887
v 0.000000 -0.258154 1.740887
v 0.066816 -0.249358 1.740887
v 0.129077 -0.223568 1.740887
v 0.182543 -0.182543 1.740887
v 0.223568 -0.129077 1.740887
v 0.249358 -0.066815 1.740887
v 0.280000 0.000000 1.750000
v 0.226525 -0.164580 1.750000
v 0.086525 -0.266296 1.750000
v -0.086525 -0.266296 1.750000
v -0.226525 -0.164580 1.750000
v -0.280000 0.000000 1.750000
v -0.226525 0.164580 1.750000
v -0.086525 0.266296 1.750000
v 0.086525 0.266296 1.750000
v 0.226525 0.164580 1.750000
v 0.200000 0.000000 1.750000
v 0.161803 -0.117557 1.750000
v 0.061803 -0.190211 1.750000
v -0.061803 -0.190211 1.750000
v -0.161803 -0.117557 1.750000
v -0.200000 0.000000 1.750000
v -0.161803 0.117557 1.750000
v -0.061803 0.190211 1.750000
v 0.061803 0.190211 1.750000
v 0.161803 0.117557 1.750000
v -0.226152 -0.060597 0.937314
v -0.202763 -0.117065 0.937314
v 0.200449 0.000000 0.937314
v 0.162167 -0.117821 0.937314
v -0.165555 -0.165555 0.937314
v 0.061942 -0.190638 0.937314
v -0.117065 -0.202763 0.937314
v -0.061942 -0.190638 0.937314
v -0.060597 -0.226152 0.937314
v 0.234130 0.000000 0.937314
v -0.162167 -0.117821 0.937314
v 0.000000 -0.234130 0.937314
v 0.226152 0.060597 0.937314
v -0.200449 0.000000 0.937314
v 0.060597 -0.226152 0.937314
v 0.202763 0.117065 0.937314
v -0.162167 0.117821 0.937314
v 0.117065 -0.202763 0.937314
v 0.165555 0.165554 0.937314
v -0.061942 0.190639 0.937314
v 0.165554 -0.165555 0.937314
v 0.117065 0.202763 0.937314
v 0.061942 0.190639 0.937314
v 0.202763 -0.117065 0.937314
v 0.060597 0.226152 0.937314
v 0.162167 0.117821 0.937314
v 0.226152 -0.060597 0.937314
v 0.000000 0.234130 0.937314
v -0.060597 0.226152 0.937314
v -0.117065 0.202763 0.937314
v -0.165554 0.165555 0.937314
v -0.202763 0.117065 0.937314
v -0.226151 0.060597 0.937314
v -0.234130 0.000000 0.937314
vn -0.9578 -0.0000 0.2874
vn -0.9252 -0.2479 0.2874
vn -0.8295 -0.4789 0.2874
vn -0.6773 -0.6773 0.2874
vn -0.4789 -0.8295 0.2874
vn -0.2479 -0.9252 0.2874
vn -0.0000 -0.9578 0.2874
vn 0.2479 -0.9252 0.2874
vn 0.4789 -0.8295 0.2874
vn 0.6773 -0.6773 0.2874
vn 0.8295 -0.4789 0.2874
vn 0.9252 -0.2479 0.2874
vn 0.9578 -0.0000 0.2874
vn 0.9252 0.2479 0.2874
vn 0.8295 0.4789 0.2874
vn 0.6773 0.6773 0.2874
vn 0.4789 0.8295 0.2874
vn 0.2479 0.9252 0.2874
vn -0.0000 0.9578 0.2874
vn -0.2479 0.9252 0.2874
vn -0.4789 0.8295 0.2874
vn -0.6773 0.6773 0.2874
vn -0.8295 0.4789 0.2874
vn -0.9252 0.2479 0.2874
vn -0.9659 -0.2588 -0.0018
vn -1.0000 -0.0000 -0.0018
vn -0.8660 -0.5000 -0.0018
vn -0.7071 -0.7071 -0.0018
vn -0.5000 -0.8660 -0.0018
vn -0.2588 -0.9659 -0.0018
vn -0.0000 -1.0000 -0.0018
vn 0.2588 -0.9659 -0.0018
vn 0.5000 -0.8660 -0.0018
vn 0.7071 -0.7071 -0.0018
vn 0.8660 -0.5000 -0.0018
vn 0.9659 -0.2588 -0.0018
vn 1.0000 -0.0000 -0.0018
vn 0.9659 0.2588 -0.0018
vn 0.8660 0.5000 -0.0018
vn 0.7071 0.7071 -0.0018
vn 0.5000 0.8660 -0.0018
vn 0.2588 0.9659 -0.0018
vn -0.0000 1.0000 -0.0018
vn -0.2588 0.9659 -0.0018
vn -0.5000 0.8660 -0.0018
vn -0.7071 0.7071 -0.0018
vn -0.8660 0.5000 -0.0018
vn -0.9659 0.2588 -0.0018
vn 1.0000 -0.0000 -0.0000
vn 0.7342 -0.0000 -0.6789
vn 0.7092 0.1900 -0.6789
vn 0.9659 0.2588 -0.0000
vn 0.6359 0.3671 -0.6789
vn 0.8660 0.5000 -0.0000
vn 0.5192 0.5192 -0.6789
vn 0.7071 0.7071 -0.0000
vn 0.3671 0.6359 -0.6789
vn 0.5000 0.8660 -0.0000
vn 0.1900 0.7092 -0.6789
vn 0.2588 0.9659 -0.0000
vn -0.0000 0.7342 -0.6789
vn -0.0000 1.0000 -0.0000
vn -0.1900 0.7092 -0.6789
vn -0.2588 0.9659 -0.0000
vn -0.3671 0.6359 -0.6789
vn -0.5000 0.8660 -0.0000
vn -0.5192 0.5192 -0.6789
vn -0.7071 0.7071 -0.0000
vn -0.6359 0.3671 -0.6789
vn -0.8660 0.5000 -0.0000
vn -0.7092 0.1900 -0.6789
vn -0.9659 0.2588 -0.0000
vn -0.7342 -0.0000 -0.6789
vn -1.0000 -0.0000 -0.0000
vn -0.7092 -0.1900 -0.6789
vn -0.9659 -0.2588 -0.0000
vn -0.6359 -0.3671 -0.6789
vn -0.8660 -0.5000 -0.0000
vn -0.5192 -0.5192 -0.6789
vn -0.7071 -0.7071 -0.0000
vn -0.3671 -0.6359 -0.6789
vn -0.5000 -0.8660 -0.0000
vn -0.1900 -0.7092 -0.6789
vn -0.2588 -0.9659 -0.0000
vn -0.0000 -0.7342 -0.6789
vn -0.0000 -1.0000 -0.0000
vn 0.1900 -0.7092 -0.6789
vn 0.2588 -0.9659 -0.0000
vn 0.3671 -0.6359 -0.6789
vn 0.5000 -0.8660 -0.0000
vn 0.5192 -0.5192 -0.6789
vn 0.7071 -0.7071 -0.0000
vn 0.6359 -0.3671 -0.6789
vn 0.8660 -0.5000 -0.0000
vn 0.7092 -0.1900 -0.6789
vn 0.9659 -0.2588 -0.0000
vn 0.9253 0.2479 -0.2869
vn 0.9580 -0.0000 -0.2869
vn 0.8296 0.4790 -0.2869
vn 0.6774 0.6774 -0.2869
vn 0.4790 0.8296 -0.2869
vn 0.2479 0.9253 -0.2869
vn -0.0000 0.9580 -0.2869
vn -0.2479 0.9253 -0.2869
vn -0.4790 0.8296 -0.2869
vn -0.6774 0.6774 -0.2869
vn -0.8296 0.4790 -0.2869
vn -0.9253 0.2479 -0.2869
vn -0.9580 -0.0000 -0.2869
vn -0.9253 -0.2479 -0.2869
vn -0.8296 -0.4790 -0.2869
vn -0.6774 -0.6774 -0.2869
vn -0.4790 -0.8296 -0.2869
vn -0.2479 -0.9253 -0.2869
vn -0.0000 -0.9580 -0.2869
vn 0.2479 -0.9253 -0.2869
vn 0.4790 -0.8296 -0.2869
vn 0.6774 -0.6774 -0.2869
vn 0.8296 -0.4790 -0.2869
vn 0.9253 -0.2479 -0.2869
vn 1.0000 -0.0000 0.0006
vn 0.9659 0.2588 0.0006
vn 0.8660 0.5000 0.0006
vn 0.7071 0.7071 0.0006
vn 0.5000 0.8660 0.0006
vn 0.2588 0.9659 0.0006
vn -0.0000 1.0000 0.0006
vn -0.2588 0.9659 0.0006
vn -0.5000 0.8660 0.0006
vn -0.7071 0.7071 0.0006
vn -0.8660 0.5000 0.0006
vn -0.9659 0.2588 0.0006
vn -1.0000 -0.0000 0.0006
vn -0.9659 -0.2588 0.0006
vn -0.8660 -0.5000 0.0006
vn -0.7071 -0.7071 0.0006
vn -0.5000 -0.8660 0.0006
vn -0.2588 -0.9659 0.0006
vn -0.0000 -1.0000 0.0006
vn 0.2588 -0.9659 0.0006
vn 0.5000 -0.8660 0.0006
vn 0.7071 -0.7071 0.0006
vn 0.8660 -0.5000 0.0006
vn 0.9659 -0.2588 0.0006
vn -0.0061 -0.0016 1.0000
vn -0.0063 -0.0000 1.0000
vn -0.0055 -0.0032 1.0000
vn -0.0045 -0.0045 1.0000
vn -0.0032 -0.0055 1.0000
vn -0.0016 -0.0061 1.0000
vn -0.0000 -0.0063 1.0000
vn 0.0016 -0.0061 1.0000
vn 0.0032 -0.0055 1.0000
vn 0.0045 -0.0045 1.0000
vn 0.0055 -0.0032 1.0000
vn 0.0061 -0.0016 1.0000
vn 0.0063 -0.0000 1.0000
vn 0.0061 0.0016 1.0000
vn 0.0055 0.0032 1.0000
vn 0.0045 0.0045 1.0000
vn 0.0032 0.0055 1.0000
vn 0.0016 0.0061 1.0000
vn -0.0000 0.0063 1.0000
vn -0.0016 0.0061 1.0000
vn -0.0032 0.0055 1.0000
vn -0.0045 0.0045 1.0000
vn -0.0055 0.0032 1.0000
vn -0.0061 0.0016 1.0000
vn -1.0000 -0.0000 -0.0006
vn -0.6209 -0.0000 -0.7839
vn -0.5023 0.3650 -0.7839
vn -0.8090 0.5878 -0.0006
vn -0.1919 0.5905 -0.7839
vn -0.3090 0.9511 -0.0006
vn 0.1919 0.5905 -0.7839
vn 0.3090 0.9511 -0.0006
vn 0.5023 0.3650 -0.7839
vn 0.8090 0.5878 -0.0006
vn 0.6209 -0.0000 -0.7839
vn 1.0000 -0.0000 -0.0006
vn 0.5023 -0.3650 -0.7839
vn 0.8090 -0.5878 -0.0006
vn 0.1919 -0.5905 -0.7839
vn 0.3090 -0.9511 -0.0006
vn -0.1919 -0.5905 -0.7839
vn -0.3090 -0.9511 -0.0006
vn -0.5023 -0.3650 -0.7839
vn -0.8090 -0.5878 -0.0006
vn -0.0000 -0.0000 1.0000
vt 0.389300 1.528100
vt 0.436100 1.596300
vt 0.415900 1.610200
vt 0.369000 1.542000
vt 0.395400 1.624300
vt 0.348500 1.556000
vt 0.374800 1.638400
vt 0.328000 1.570100
vt 0.354500 1.652300
vt 0.307700 1.584100
vt 0.334700 1.666000
vt 0.287800 1.597700
vt 0.314600 1.679700
vt 0.267800 1.611500
vt 0.293900 1.693900
vt 0.247100 1.625700
vt 0.267100 1.712400
vt 0.220200 1.644100
vt 0.712400 1.306200
vt 0.759200 1.374500
vt 0.733300 1.392300
vt 0.686500 1.324000
vt 0.713500 1.405900
vt 0.666700 1.337600
vt 0.693700 1.419500
vt 0.646800 1.351200
vt 0.673700 1.433200
vt 0.626900 1.364900
vt 0.653500 1.447100
vt 0.606600 1.378800
vt 0.633300 1.461000
vt 0.586400 1.392700
vt 0.613200 1.474700
vt 0.566300 1.406500
vt 0.593300 1.488400
vt 0.546500 1.420100
vt 0.573600 1.501900
vt 0.526800 1.433700
vt 0.554000 1.515400
vt 0.507100 1.447100
vt 0.534400 1.528900
vt 0.487500 1.460600
vt 0.514600 1.542400
vt 0.467800 1.474200
vt 0.495100 1.555800
vt 0.448200 1.487600
vt 0.475700 1.569100
vt 0.428900 1.500900
vt 0.456100 1.582600
vt 0.409200 1.514400
vt 0.543700 1.753000
vt 0.523400 1.766900
vt 0.502900 1.780900
vt 0.482400 1.795000
vt 0.462100 1.809000
vt 0.442200 1.822600
vt 0.422200 1.836400
vt 0.401500 1.850600
vt 0.374600 1.869000
vt 0.866800 1.531100
vt 0.840900 1.548900
vt 0.821100 1.562500
vt 0.801200 1.576100
vt 0.781300 1.589800
vt 0.761000 1.603700
vt 0.740800 1.617600
vt 0.720700 1.631400
vt 0.700900 1.645000
vt 0.681200 1.658600
vt 0.661600 1.672000
vt 0.641900 1.685500
vt 0.622200 1.699100
vt 0.602700 1.712400
vt 0.583300 1.725800
vt 0.563600 1.739200
vt 0.842400 1.299300
vt 0.660809 1.034825
vt 0.697923 1.009325
vt 0.879500 1.273800
vt 0.735023 0.983910
vt 0.916600 1.248400
vt 0.772023 0.958510
vt 0.953600 1.223000
vt 0.809109 0.933025
vt 0.990700 1.197500
vt 0.846209 0.907610
vt 1.027800 1.172100
vt 0.883309 0.882110
vt 1.064900 1.146600
vt 0.920323 0.856625
vt 1.101900 1.121100
vt 0.957409 0.831210
vt 1.139000 1.095700
vt 0.994509 0.805725
vt 1.176100 1.070200
vt 1.031609 0.780310
vt 1.213200 1.044800
vt 1.068709 0.754825
vt 1.250300 1.019300
vt 1.105723 0.729325
vt 1.287300 0.993800
vt 1.142823 0.703910
vt 1.324400 0.968400
vt 1.179923 0.678425
vt 1.361500 0.942900
vt 1.217109 0.652925
vt 1.398700 0.917400
vt 1.254208 0.627425
vt 1.435800 0.891900
vt 1.291309 0.601925
vt 1.472900 0.866400
vt 1.328509 0.576425
vt 1.510100 0.840900
vt 1.365623 0.550925
vt 1.547200 0.815400
vt 1.402909 0.525410
vt 1.584500 0.789900
vt 1.440208 0.499725
vt 1.621800 0.764200
vt 1.477523 0.474110
vt 1.659100 0.738600
vt 0.767800 1.350500
vt 0.586223 1.086025
vt 0.623523 1.060425
vt 0.805100 1.324900
vt 0.912900 1.322400
vt 0.875700 1.348000
vt 0.950000 1.297000
vt 0.987000 1.271600
vt 1.024000 1.246100
vt 1.061100 1.220700
vt 1.098200 1.195200
vt 1.135300 1.169700
vt 1.172400 1.144300
vt 1.209500 1.118800
vt 1.246500 1.093400
vt 1.283600 1.067900
vt 1.320700 1.042500
vt 1.357800 1.017000
vt 1.394900 0.991500
vt 1.432000 0.966000
vt 1.469100 0.940500
vt 1.506300 0.915100
vt 1.543400 0.889500
vt 1.580600 0.864000
vt 1.617800 0.838500
vt 1.655200 0.812800
vt 1.692500 0.787200
vt 0.838500 1.373500
vt 0.801200 1.399100
vt 0.982500 1.503500
vt 1.019700 1.477900
vt 1.056800 1.452500
vt 1.093800 1.427100
vt 1.130800 1.401700
vt 1.167900 1.376200
vt 1.205000 1.350700
vt 1.242100 1.325300
vt 1.279200 1.299800
vt 1.316200 1.274400
vt 1.353300 1.248900
vt 1.390400 1.223400
vt 1.427500 1.198000
vt 1.464600 1.172500
vt 1.501700 1.147000
vt 1.538800 1.121500
vt 1.575900 1.096100
vt 1.613000 1.070600
vt 1.650200 1.045100
vt 1.687400 1.019500
vt 1.724600 0.994000
vt 1.761900 0.968300
vt 1.799300 0.942700
vt 0.908000 1.554600
vt 0.945300 1.529000
vt 1.526800 1.601800
vt 1.564200 1.582700
vt 1.576200 1.600200
vt 1.533900 1.621700
vt 1.485800 1.610500
vt 1.487400 1.631500
vt 1.443900 1.608300
vt 1.440000 1.629000
vt 1.404000 1.595300
vt 1.394900 1.614300
vt 1.368800 1.572400
vt 1.355100 1.588500
vt 1.340800 1.541200
vt 1.323400 1.553200
vt 1.321800 1.503800
vt 1.301800 1.510900
vt 1.313100 1.462800
vt 1.292000 1.464400
vt 1.315300 1.420900
vt 1.294500 1.417100
vt 1.328300 1.381000
vt 1.309200 1.371900
vt 1.351100 1.345800
vt 1.335100 1.332100
vt 1.382300 1.317800
vt 1.370400 1.300400
vt 1.419700 1.298800
vt 1.412700 1.278900
vt 1.460700 1.290100
vt 1.459100 1.269000
vt 1.502600 1.292300
vt 1.506500 1.271500
vt 1.542500 1.305300
vt 1.551600 1.286200
vt 1.577700 1.328100
vt 1.591400 1.312100
vt 1.605700 1.359300
vt 1.623100 1.347400
vt 1.624800 1.396700
vt 1.644700 1.389700
vt 1.633500 1.437700
vt 1.654500 1.436100
vt 1.631300 1.479600
vt 1.652000 1.483500
vt 1.618300 1.519500
vt 1.637300 1.528600
vt 1.595400 1.554700
vt 1.611500 1.568400
vt 0.750000 0.000000
vt 0.750000 0.232196
vt 0.650000 0.232196
vt 0.650000 0.000000
vt 0.550000 0.232196
vt 0.550000 0.000000
vt 0.450000 0.232196
vt 0.450000 0.000000
vt 0.350000 0.232196
vt 0.350000 0.000000
vt 0.250000 0.232196
vt 0.250000 0.000000
vt 0.150000 0.232196
vt 0.150000 0.000000
vt 0.050000 0.232196
vt 0.050000 0.000000
vt -0.050000 0.232196
vt -0.050000 0.000000
vt 0.950000 0.000000
vt 0.950000 0.232196
vt 0.850000 0.232196
vt 0.850000 0.000000
s 1
f 1/1/1 25/2/1 26/3/2 2/4/2
f 2/4/2 26/3/2 27/5/3 3/6/3
f 3/6/3 27/5/3 28/7/4 4/8/4
f 4/8/4 28/7/4 29/9/5 5/10/5
f 5/10/5 29/9/5 30/11/6 6/12/6
f 6/12/6 30/11/6 31/13/7 7/14/7
f 7/14/7 31/13/7 32/15/8 8/16/8
f 8/16/8 32/15/8 33/17/9 9/18/9
f 9/19/9 33/20/9 34/21/10 10/22/10
f 10/22/10 34/21/10 35/23/11 11/24/11
f 11/24/11 35/23/11 36/25/12 12/26/12
f 12/26/12 36/25/12 37/27/13 13/28/13
f 13/28/13 37/27/13 38/29/14 14/30/14
f 14/30/14 38/29/14 39/31/15 15/32/15
f 15/32/15 39/31/15 40/33/16 16/34/16
f 16/34/16 40/33/16 41/35/17 17/36/17
f 17/36/17 41/35/17 42/37/18 18/38/18
f 18/38/18 42/37/18 43/39/19 19/40/19
f 19/40/19 43/39/19 44/41/20 20/42/20
f 20/42/20 44/41/20 45/43/21 21/44/21
f 21/44/21 45/43/21 46/45/22 22/46/22
f 22/46/22 46/45/22 47/47/23 23/48/23
f 23/48/23 47/47/23 48/49/24 24/50/24
f 24/50/24 48/49/24 25/2/1 1/1/1
f 26/3/25 25/2/26 49/51/26 50/52/25
f 27/5/27 26/3/25 50/52/25 51/53/27
f 28/7/28 27/5/27 51/53/27 52/54/28
f 29/9/29 28/7/28 52/54/28 53/55/29
f 30/11/30 29/9/29 53/55/29 54/56/30
f 31/13/31 30/11/30 54/56/30 55/57/31
f 32/15/32 31/13/31 55/57/31 56/58/32
f 33/17/33 32/15/32 56/58/32 57/59/33
f 34/21/34 33/20/33 57/60/33 58/61/34
f 35/23/35 34/21/34 58/61/34 59/62/35
f 36/25/36 35/23/35 59/62/35 60/63/36
f 37/27/37 36/25/36 60/63/36 61/64/37
f 38/29/38 37/27/37 61/64/37 62/65/38
f 39/31/39 38/29/38 62/65/38 63/66/39
f 40/33/40 39/31/39 63/66/39 64/67/40
f 41/35/41 40/33/40 64/67/40 65/68/41
f 42/37/42 41/35/41 65/68/41 66/69/42
f 43/39/43 42/37/42 66/69/42 67/70/43
f 44/41/44 43/39/43 67/70/43 68/71/44
f 45/43/45 44/41/44 68/71/44 69/72/45
f 46/45/46 45/43/45 69/72/45 70/73/46
f 47/47/47 46/45/46 70/73/46 71/74/47
f 48/49/48 47/47/47 71/74/47 72/75/48
f 25/2/26 48/49/48 72/75/48 49/51/26
f 73/76/49 174/77/50 177/78/51 74/79/52
f 74/79/52 177/78/51 180/80/53 75/81/54
f 75/81/54 180/80/53 183/82/55 76/83/56
f 76/83/56 183/82/55 186/84/57 77/85/58
f 77/85/58 186/84/57 189/86/59 78/87/60
f 78/87/60 189/86/59 192/88/61 79/89/62
f 79/89/62 192/88/61 193/90/63 80/91/64
f 80/91/64 193/90/63 194/92/65 81/93/66
f 81/93/66 194/92/65 195/94/67 82/95/68
f 82/95/68 195/94/67 196/96/69 83/97/70
f 83/97/70 196/96/69 197/98/71 84/99/72
f 84/99/72 197/98/71 198/100/73 85/101/74
f 85/101/74 198/100/73 165/102/75 86/103/76
f 86/103/76 165/102/75 166/104/77 87/105/78
f 87/105/78 166/104/77 169/106/79 88/107/80
f 88/107/80 169/106/79 171/108/81 89/109/82
f 89/109/82 171/108/81 173/110/83 90/111/84
f 90/111/84 173/110/83 176/112/85 91/113/86
f 91/113/86 176/112/85 179/114/87 92/115/88
f 92/115/88 179/114/87 182/116/89 93/117/90
f 93/117/90 182/116/89 185/118/91 94/119/92
f 94/119/92 185/118/91 188/120/93 95/121/94
f 95/122/94 188/123/93 191/124/95 96/125/96
f 96/125/96 191/124/95 174/77/50 73/76/49
f 97/126/97 98/127/98 73/76/98 74/79/97
f 99/128/99 97/126/97 74/79/97 75/81/99
f 100/129/100 99/128/99 75/81/99 76/83/100
f 101/130/101 100/129/100 76/83/100 77/85/101
f 102/131/102 101/130/101 77/85/101 78/87/102
f 103/132/103 102/131/102 78/87/102 79/89/103
f 104/133/104 103/132/103 79/89/103 80/91/104
f 105/134/105 104/133/104 80/91/104 81/93/105
f 106/135/106 105/134/105 81/93/105 82/95/106
f 107/136/107 106/135/106 82/95/106 83/97/107
f 108/137/108 107/136/107 83/97/107 84/99/108
f 109/138/109 108/137/108 84/99/108 85/101/109
f 110/139/110 109/138/109 85/101/109 86/103/110
f 111/140/111 110/139/110 86/103/110 87/105/111
f 112/141/112 111/140/111 87/105/111 88/107/112
f 113/142/113 112/141/112 88/107/112 89/109/113
f 114/143/114 113/142/113 89/109/113 90/111/114
f 115/144/115 114/143/114 90/111/114 91/113/115
f 116/145/116 115/144/115 91/113/115 92/115/116
f 117/146/117 116/145/116 92/115/116 93/117/117
f 118/147/118 117/146/117 93/117/117 94/119/118
f 119/148/119 118/147/118 94/119/118 95/121/119
f 120/149/120 119/150/119 95/122/119 96/125/120
f 98/127/98 120/149/120 96/125/120 73/76/98
f 121/151/121 98/127/121 97/126/122 122/152/122
f 122/152/122 97/126/122 99/128/123 123/153/123
f 123/153/123 99/128/123 100/129/124 124/154/124
f 124/154/124 100/129/124 101/130/125 125/155/125
f 125/155/125 101/130/125 102/131/126 126/156/126
f 126/156/126 102/131/126 103/132/127 127/157/127
f 127/157/127 103/132/127 104/133/128 128/158/128
f 128/158/128 104/133/128 105/134/129 129/159/129
f 129/159/129 105/134/129 106/135/130 130/160/130
f 130/160/130 106/135/130 107/136/131 131/161/131
f 131/161/131 107/136/131 108/137/132 132/162/132
f 132/162/132 108/137/132 109/138/133 133/163/133
f 133/163/133 109/138/133 110/139/134 134/164/134
f 134/164/134 110/139/134 111/140/135 135/165/135
f 135/165/135 111/140/135 112/141/136 136/166/136
f 136/166/136 112/141/136 113/142/137 137/167/137
f 137/167/137 113/142/137 114/143/138 138/168/138
f 138/168/138 114/143/138 115/144/139 139/169/139
f 139/169/139 115/144/139 116/145/140 140/170/140
f 140/170/140 116/145/140 117/146/141 141/171/141
f 141/171/141 117/146/141 118/147/142 142/172/142
f 142/172/142 118/147/142 119/148/143 143/173/143
f 143/174/143 119/150/143 120/149/144 144/175/144
f 144/175/144 120/149/144 98/127/121 121/151/121
f 50/176/145 49/177/146 121/178/146 122/179/145
f 51/180/147 50/176/145 122/179/145 123/181/147
f 52/182/148 51/180/147 123/181/147 124/183/148
f 53/184/149 52/182/148 124/183/148 125/185/149
f 54/186/150 53/184/149 125/185/149 126/187/150
f 55/188/151 54/186/150 126/187/150 127/189/151
f 56/190/152 55/188/151 127/189/151 128/191/152
f 57/192/153 56/190/152 128/191/152 129/193/153
f 58/194/154 57/192/153 129/193/153 130/195/154
f 59/196/155 58/194/154 130/195/154 131/197/155
f 60/198/156 59/196/155 131/197/155 132/199/156
f 61/200/157 60/198/156 132/199/156 133/201/157
f 62/202/158 61/200/157 133/201/157 134/203/158
f 63/204/159 62/202/158 134/203/158 135/205/159
f 64/206/160 63/204/159 135/205/159 136/207/160
f 65/208/161 64/206/160 136/207/160 137/209/161
f 66/210/162 65/208/161 137/209/161 138/211/162
f 67/212/163 66/210/162 138/211/162 139/213/163
f 68/214/164 67/212/163 139/213/163 140/215/164
f 69/216/165 68/214/164 140/215/164 141/217/165
f 70/218/166 69/216/165 141/217/165 142/219/166
f 71/220/167 70/218/166 142/219/166 143/221/167
f 72/222/168 71/220/167 143/221/167 144/223/168
f 49/177/146 72/222/168 144/223/168 121/178/146
f 155/224/169 167/225/170 168/226/171 156/227/172
f 156/227/172 168/226/171 170/228/173 157/229/174
f 157/229/174 170/228/173 172/230/175 158/231/176
f 158/231/176 172/230/175 175/232/177 159/233/178
f 159/233/178 175/232/177 178/234/179 160/235/180
f 160/235/180 178/234/179 181/236/181 161/237/182
f 161/237/182 181/236/181 184/238/183 162/239/184
f 162/239/184 184/238/183 187/240/185 163/241/186
f 163/242/186 187/243/185 190/244/187 164/245/188
f 164/245/188 190/244/187 167/225/170 155/224/169
f 155/224/189 156/227/189 146/227/189 145/224/189
f 156/227/189 157/229/189 147/229/189 146/227/189
f 157/229/189 158/231/189 148/231/189 147/229/189
f 158/231/189 159/233/189 149/233/189 148/231/189
f 159/233/189 160/235/189 150/235/189 149/233/189
f 160/235/189 161/237/189 151/237/189 150/235/189
f 161/237/189 162/239/189 152/239/189 151/237/189
f 162/239/189 163/241/189 153/241/189 152/239/189
f 163/242/189 164/245/189 154/245/189 153/242/189
f 164/245/189 155/224/189 145/224/189 154/245/189
f 175/232/177 166/104/77 165/102/75 198/100/73 178/234/179
f 181/236/181 178/234/179 198/100/73 197/98/71 196/96/69
f 175/232/177 172/230/175 173/110/83 171/108/81 169/106/79 166/104/77
f 173/110/83 172/230/175 170/228/173 179/114/87 176/112/85
f 179/114/87 170/228/173 168/226/171 188/120/93 185/118/91 182/116/89
f 174/77/50 191/124/95 188/120/93 168/226/171 167/225/170
f 177/78/51 174/77/50 167/225/170 190/244/187 183/82/55 180/80/53
f 183/82/55 190/244/187 187/243/185 189/86/59 186/84/57
f 189/86/59 187/243/185 184/238/183 193/90/63 192/88/61
f 181/236/181 196/96/69 195/94/67 194/92/65 193/90/63 184/238/183
